<?xml version="1.0" encoding="utf-8"?>
<!-- Generator: Adobe Illustrator 27.8.0, SVG Export Plug-In . SVG Version: 6.00 Build 0)  -->
<svg version="1.1" id="Ebene_1" xmlns="http://www.w3.org/2000/svg" xmlns:xlink="http://www.w3.org/1999/xlink" x="0px" y="0px"
	 viewBox="0 0 640 480" style="enable-background:new 0 0 640 480;" xml:space="preserve">
<style type="text/css">
	.st0{fill:#008AFF;}
</style>
<path class="st0" d="M183.6,309c0,2.7-2,4.7-4.7,4.7H165c-2.7,0-4.7-2-4.7-4.7v-46.7c0-15.7-12.7-28.6-28.4-28.6s-28.4,13-28.4,28.6
	V309c0,2.7-2,4.7-4.7,4.7H84.9c-2.7,0-4.7-2-4.7-4.7v-46.7c0-28.8,22.8-51.9,51.7-51.9c28.6,0,51.7,23,51.7,51.9V309z"/>
<path class="st0" d="M222.8,233.8c-2.7,0-4.7,2-4.7,4.7v24.4c0,13.4,9.2,24.6,21.5,27.7c2,0.4,3.4,2.2,3.4,4.5V309
	c0,2.7-2,4.7-4.7,4.7H237c-23.3,0-42-19-42-42V170.8c0-2.7,2-4.7,4.7-4.7h13.9c2.7,0,4.7,2,4.7,4.7v34.9c0,2.7,2,4.7,4.7,4.7h15.4
	c2.7,0,4.7,2,4.7,4.7v14.1c0,2.7-2,4.7-4.7,4.7h-15.6V233.8z"/>
<path class="st0" d="M406,228.9c0,2.2-1.3,4-3.4,4.5c-12.3,3.1-21.5,14.3-21.5,27.7V309c0,2.7-2,4.7-4.7,4.7h-13.9
	c-2.7,0-4.7-2-4.7-4.7v-56.6c0-23,18.8-42,42-42h1.3c2.7,0,4.7,2,4.7,4.7v13.8H406z"/>
<path class="st0" d="M456.1,228.9c0,2.2-1.3,4-3.4,4.5c-12.3,3.1-21.5,14.3-21.5,27.7V309c0,2.7-2,4.7-4.7,4.7h-13.9
	c-2.7,0-4.7-2-4.7-4.7v-56.6c0-23,18.8-42,42-42h1.3c2.7,0,4.7,2,4.7,4.7v13.8H456.1z"/>
<path class="st0" d="M509.6,290.9c-15.6,0-28.2-12.6-28.2-28.2s12.6-28.2,28.2-28.2s28.2,12.6,28.2,28.2S525.2,290.9,509.6,290.9
	 M561,262.7c0-28.4-23-51.4-51.4-51.4s-51.4,23-51.4,51.4s23,51.4,51.4,51.4c10.4,0,20.1-3.1,28.2-8.4v3.7c0,2.7,2,4.7,4.7,4.7h13.9
	c2.7,0,4.7-2,4.7-4.7v-46.7H561z"/>
<path class="st0" d="M296.4,234.3c12.7,0,23.4,8.3,26.9,19.8h-53.9C273,242.6,283.7,234.3,296.4,234.3 M347.7,259.3
	c-1.6-26.9-24-48.3-51.3-48.3c-28.4,0-51.4,23-51.4,51.4s23,51.4,51.4,51.4c19.9,0,37.1-11.3,45.7-27.8l0,0c0.1-0.1,0.1-0.2,0.1-0.2
	c1.4-2.7,0.2-4.7-2.7-4.7h-20.1h1.2c-3.7,0-4.9,1.7-6.5,3.2c-3.5,3-10.4,6.3-17.7,6.3c-12.6,0-23.2-8.2-26.9-19.6h73.6
	c2.7,0,4.7-2,4.7-4.7C347.8,266.4,348,262.7,347.7,259.3"/>
</svg>
